<?xml version="1.0" encoding="UTF-8"?>
<svg id="Calque_1" data-name="Calque 1" xmlns="http://www.w3.org/2000/svg" viewBox="0 0 2000 2000">
  <path d="M1831.89,1174.28v17.5s-18.74-1.15-18.74-1.15c-16.86-.39-33.39-1.38-48.87-8.13-31-13.52-48.3-44.57-46.18-78.38,1.82-29.11,19.77-54.43,47.05-65.3,20.51-8.18,43.24-8.75,64.28-1.58l-7.52,16.39c-36.67-14.17-79.82,8.23-85.11,47.94-4.41,33.1,17.47,62.44,49.72,69.52,15.38,3.38,30.28,2.83,45.37,3.19Z"/>
  <path d="M1831.89,1797.14v17.36s-18.74-1.05-18.74-1.05c-17.52-.42-34.65-1.68-50.57-9.14-30.37-14.22-47.03-45.08-44.36-78.77,1.93-24.36,15.5-46.71,36.89-59.1,22.49-13.04,49.84-15.01,74.4-6.33l-7.59,16.43c-12.08-5.66-24.71-5.48-37.82-2.66-33.29,7.14-54.48,39.29-46.41,72.47,5.92,24.33,24.43,42.14,48.92,47.51,15.28,3.35,30.31,3.2,45.27,3.28Z"/>
  <path d="M1831.9,555.45v16.17s-36.81-1.36-36.81-1.36c-16.71-2.08-33.23-5.53-46.8-16.09-28.6-22.26-38.08-62.34-23.12-95.29,17.86-39.35,65.34-54.89,104.71-39.44l-8.33,15.73c-13.5-6.37-26.66-5.46-40.24-1.81-32.33,8.69-51.9,40.81-42.92,73.4,8.34,30.28,34.61,47.22,64.83,47.68l28.68,1.01Z"/>
  <path d="M1831.89,1627.31v20.14c-39.03-13.82-83.66-2.98-110.4,28.99-25.76,30.8-28.09,72.42-4.24,105.7l-21.69.57c-30.96-53.9-5.56-122.05,50.52-148.08,24.34-11.3,51.17-13.38,77.39-8.82,3.25.56,5.73,1.71,8.43,1.5Z"/>
  <path d="M1831.88,1004.47l.02,20.14c-55.89-19.34-118.52,11.52-129.85,70.08-4.46,23.03,1.55,44.74,15,64.76l-21.81.15c-17.88-31.98-17.16-69.89.84-101.77,25.28-44.77,75.34-63.32,126.09-54.85,3.54.59,6.62,1.99,9.7,1.5Z"/>
  <path d="M1831.9,386.98v18.8c-45.78-15-97.12,1.43-120.57,44.72-15.68,28.95-13.82,62.37,5.5,89.77l-21.51.31c-16.96-30.21-17.17-65.96-1.29-97.05,25.88-50.64,83.8-70.7,137.86-56.55Z"/>
  <path d="M1831.9,175.88v19.51c-45.72-2.01-90.82,31.44-90.78,78.84l.06,71.06-20.84.11.21-72.38c.05-17.35,5.52-32.91,14.7-47.38,21.1-33.25,58-51.3,96.64-49.77Z"/>
  <path d="M1831.89,1418.89v20.04c-28.78-1.32-57.52,10.08-75.35,33.51-9.22,12.12-15.18,25.47-15.23,40.83l-.22,73.35-20.66.04.03-69.49c.02-49.36,41.8-90.63,91.66-97.08l19.77-1.2Z"/>
  <path d="M1831.91,795.51l-.02,19.25c-43.88-2.32-90.2,31.33-90.43,74.3l-.4,75.04-20.69.03.17-71.05c.07-28.3,14.04-52.55,34.94-71.32,20.98-18.84,48.8-26.92,76.42-26.25Z"/>
  <path d="M1831.91,1327.91v29.5c-2.06-.62-3.66.56-5.86,1.67-18.9,9.46-40.89,10.13-60.05.9-19.42-9.36-32.79-27.96-32.81-49.87l-.07-68.62,20.34.25-.49,62.97c-.11,13.48,4.36,24.95,15.17,33.28,20.36,15.7,49.46,10.35,63.77-10.07Z"/>
  <path d="M1831.91,706.45v28.2c-16.87,9.3-36.25,12.77-55.78,7.04-23.32-6.84-42.53-26.83-42.73-51.78l-.55-69.4,20.53.02-.21,62.69c-.04,12.45,3.49,23.06,13.01,31.11,20.3,17.15,50.8,13.19,65.74-7.88Z"/>
  <path d="M1831.89,1373.43l.02,19.52c-21.44,6.15-43.53,7.39-65.54,1.46-44.26-11.92-73.1-51.92-70.72-97.2l21.63.62c-3.7,28.94,9.75,55.24,34.31,70.03,22.26,13.41,49.27,15.1,73.77,6.66,2.55-.88,4.44-1.62,6.54-1.09Z"/>
  <path d="M1831.9,750.6v21.38c-23.83,4.17-42.05,6.76-66.95-.33-42.99-12.25-70.74-51.45-69.04-95.61l21.29.47c-3.55,32.55,14.99,61.69,44.75,74.22,22.73,9.58,47.74,8.65,69.96-.13Z"/>
  <path d="M1831.89,828.12v21.39c-22.41-2.66-47.25,11.94-49.49,36.36l-1.06,78.28-21.64-.13.31-73.66c.13-29.59,22.17-53.26,50.48-59.98l21.4-2.25Z"/>
  <path d="M1831.9,209.29v21.38c-22.24-2.98-47.37,12.15-49.5,36.23l-1.1,78.44-21.52-.09-.04-71.03c-.02-39.72,33.7-66.5,72.16-64.93Z"/>
  <path d="M1831.9,1452.3v21.39c-21.86-3.43-47.11,11.09-49.46,35l-1.17,77.88-21.47.15v-70.82c.02-39.22,33.87-65.86,72.1-63.6Z"/>
  <path d="M1831.9,1143.55v17.38s-37.29-1.31-37.29-1.31c-17.74-.31-32.11-12.1-39.82-27.71-10.42-21.09-4.56-45.56,14.71-59.5,12.9-9.33,29.8-11.84,45.29-7.18l-7.36,13.97c-7.89-.18-15.21-.03-22.48,3.35-13.82,6.42-21.45,20.95-16.99,36.47,3.15,10.98,13.49,23.2,25.39,23.44l38.56,1.08Z"/>
  <path d="M1831.9,1766.38v16.85s-37.29-.75-37.29-.75c-13.53-.22-25.12-7.75-33.51-18.02-11.24-13.77-14.87-31.21-8.25-48.43,9.16-23.85,37.32-36.42,62.06-27.59l-8.06,14.3c-19.11-3.57-38.06,7.45-40.16,27.43-1.74,16.54,11.09,32.98,27.8,35.3l37.41.92Z"/>
  <path d="M1831.9,524.72v16.04s-38.86-.36-38.86-.36c-26.94-2.85-46.32-28.09-42.59-54.88,4.33-31.09,36.18-48.52,64.5-38.62l-8.05,14.09c-16.29-2.44-33.12,4.76-38.57,21.31-6.04,18.32,6.77,39.14,26.13,41.49l37.43.94Z"/>
  <path d="M1831.9,242.7v18.18c-9.39-2.16-17.6,6.02-17.61,15.96l-.08,54.1c-6.75,2.48-13.25,3.31-19.61,2.44l.23-55.11c.05-10.92,2.72-20.68,10.39-27.45,7.38-6.52,16.92-9.58,26.69-8.11Z"/>
  <path d="M1831.9,861.53v17.4c-6.4-1.38-16.77,3.74-16.89,11.67l-.9,59.24c-6.47,2.65-12.58,2.65-19.66,2.01l1.25-64.6c1.72-17.66,20.61-27.59,36.2-25.72Z"/>
  <path d="M1831.89,1485.71v17.41c-6.79-2.62-16.96,3.28-17.05,11.47l-.6,57.26c-6.27,3.22-13,3.07-19.78,2.11l1.09-62.86c.31-17.6,20.64-28.7,36.33-25.39Z"/>
  <path d="M747.96,161.97c.24,1.44.96,2.98,2.39,4.26l17.31,18.54-22.29,23.39c-7.13-8.74-14.13-15.49-21.72-23.74l15.31-16.74c1.76-1.92,3.51-3.37,3.89-5.71h5.1Z"/>
  <polygon points="1362.1 161.98 1381.28 184.64 1359.45 207.75 1337.83 184.33 1357.56 161.97 1362.1 161.98"/>
  <path d="M1831.87,1108.8l-26.14-1.45,21.44-38.63c1.38-2.49,2.21-5.07,4.73-5.31l-.03,45.39Z"/>
  <path d="M1831.88,1731.64l-26.19-1.4,24.93-44.1c.74,0,1.11-.23,1.29.16l-.02,45.34Z"/>
  <polygon points="1831.9 488.62 1806.23 487.94 1831.91 444.61 1831.9 488.62"/>
  <path d="M1831.91,1117.62l-.03,15.25-39.95.1c2.19-6.62,5.22-11.25,8.96-16.01l31.02.66Z"/>
  <path d="M1831.91,1740.46l-.03,15.25-39.56-.25c1.49-6.21,4.76-10.03,7.84-15.34l31.75.34Z"/>
  <path d="M1831.91,498.79l-.04,15.25-39.84-.12c2.33-6.28,5.6-10.55,8.91-15.76l30.96.63Z"/>
  <path d="M397.57,1838.03h-21.94c.17-1.56-.64-2.9-.63-5.11l21.16.49c1.34.03,1.8,3.8,1.41,4.62Z"/>
  <path d="M1625.72,1838.02h-21.9s-.33-5.11-.33-5.11l20.96.49c1.5.04,1.94,3.71,1.27,4.62Z"/>
  <path d="M1012.38,1838.03h-22.03s-.4-5.27-.4-5.27l20.88.57c1.39.04,1.92,3.93,1.54,4.7Z"/>
  <polygon points="1831.88 269.43 1831.9 288.22 1826.54 287.23 1826.8 269.62 1831.88 269.43"/>
  <path d="M1831.89,888.26v17.46c-1.52-.51-3.02-.31-5.25-.88l.25-16.93c1.2-1.04,3.93-.65,5,.35Z"/>
  <path d="M1831.9,1511.1v17.46s-5.31-.78-5.31-.78v-17.04c2.27-.47,3.78-.28,5.31.36Z"/>
  <path d="M1248.12,819.94c-29.75-10.18-61.83-5.81-86.94,11.78-19.08,13.37-33.16,33.82-33.34,57.27l-.57,75.08h-20.84s.23-72.36.23-72.36c.08-24.65,11.25-46.08,28.2-63.65,39.66-41.1,111.46-45.23,154.16-5.67,21.06,19.51,33.3,45.59,32.34,74.91l-31.98-.19-.24-18.59,10.55-.43c-5.82-27.08-24.6-48.94-51.58-58.16Z"/>
  <path d="M310.22,1633.45c-27.61-14.13-59.58-11.4-84.94,5.26-19.72,12.96-31.65,33.85-31.69,57.58l-.1,68.67-20.1.25-.08-60.83c-.02-12.82.84-25.31,5.53-37.28,13.2-33.68,43.83-56.06,79.5-60.85,59.82-8.03,114.63,35.69,113.05,96.41l-32.47.3.08-18.55,10.96-.33c-4.98-22.08-18.92-39.96-39.75-50.63Z"/>
  <path d="M1245,857.48c-18.2-12.66-43.07-11.67-60.17,1.86-9.27,7.33-15.62,17.8-15.69,29.75l-.4,75.01-21.87.21.19-72.7c.06-24.37,14.16-45.91,36.3-56.27,20.55-9.62,44.28-9.81,64.85-.01,18.99,9.05,34.97,26.9,35.23,48.42l.94,80.4-21.6-.09-.12-72.31c-.02-13.82-5.55-25.82-17.66-34.24Z"/>
  <path d="M313.25,1692.86c-.19-22.18-21.57-36.52-42.49-35.45-19.84,1.01-39.01,15.14-39.19,35.44l-.66,72.25-20.35.12.3-71.56c.12-28.2,22.04-49.83,49.08-54.86,38.19-7.11,74.08,18.55,74.09,57.6l.02,68.35h-20.18s-.61-71.88-.61-71.88Z"/>
  <g>
    <path d="M1554.6,161.98l5.08,3.76-8.35,16.79c-38.76-14.43-84.66-5.32-112.25,24.72-27.86,30.35-31.6,73.9-8.23,108.76l-21.76.3c-31.26-60.91-1.77-126.84,60.75-151.63,2.32-.17,4.34-1.1,5.67-2.71h79.07Z"/>
    <path d="M1600.1,330.95c-.02,4.33,1.11,9.14-.36,13.81-.7,2.22-6.17,3.73-8.95,3.71l-78.32-.69c-39.02-.34-75.38-31.1-79.44-72.42-3.05-31.02,11.45-60.29,38.7-75.22,22.37-12.26,48.62-14.02,73.1-6.17l-7.87,16.57c-12.47-5.58-24.45-5.26-37.21-2.48-30.36,6.62-52.5,34.59-48.38,65.94,4.45,33.89,32.81,56.38,66.57,56.55l82.16.4Z"/>
    <path d="M1600.38,263.46l-78.5-.02,50.15-93.38c11.69,6.2,20.71,13.56,28.37,23.36l-.02,70.04Z"/>
    <path d="M1508.24,299.51l131.01.18.03,16.67-132.12.27c-29.8-4.87-48.53-33.79-40.4-62.63,8.52-26.63,36.35-39.74,63.34-31.73-1.68,4.97-4.11,9.11-7.23,13.78-17.39-2.03-33.86,5.67-39.52,22.57-4.81,18.23,5.79,35.68,24.88,40.88Z"/>
    <path d="M1507.94,289.5c1.47-6.32,5.07-10.57,8.35-15.93l101.78.06c2.25,0,5.6-.78,5.54-3.56l-.61-28.72c-1.96-2.12-7.46-1.66-10.72-1.11-1.19-4.32-.71-8.1-.44-12.74l21.01-.49c4.17-.1,7.04,2.91,7.03,7.09l-.17,50.76c-.01,3.32-2.78,4.86-5.73,4.86l-126.02-.22Z"/>
  </g>
  <g>
    <path d="M941.76,161.97l3.99,3.81-8.25,16.45c-11.61-5.37-23.11-6.36-35.97-6.57-33.85-.56-67.13,15.23-84.74,43.97-18.66,30.45-18.88,65.95.85,96.37l-21.22.23c-21.06-38.22-14.94-85.63,13.82-118.77,14.4-16.59,32.86-27.77,53.15-35.49h78.36Z"/>
    <path d="M985.48,329.77c1.23,4.77,1.73,9.69-.01,13.82-1.43,3.38-7.72,4.81-11.59,4.79l-74.78-.39c-15.99-.08-30.87-5.45-44.04-13.84-37.14-23.64-45.39-78.61-20.72-112.79,15.65-21.69,41.63-33.15,68.58-32.17,9.99.36,19.03.67,28.07,5-2.03,5.61-4.54,10.33-7.95,15.52-12.85-4.89-25.26-4.77-38.15-1.74-36.92,8.69-56.96,47.76-42.43,82.36,10.61,25.28,32.93,39.58,60.36,39.55l82.66-.11Z"/>
    <path d="M986.53,263.03l-40.98-.66c-12.15-.2-23.58-1.73-36.49-1.4,17.35-30.86,33.89-59.85,48.36-92.11,11.72,6.32,21.21,13.82,28.95,23.92l.17,70.26Z"/>
    <path d="M1024,299.54c1.75,8.87.87,16.97-4,16.96l-127.51-.26c-15.57-.03-27.83-11.82-34.81-24.55-11.33-20.66-6.93-44.72,10.96-59.98,12.71-10.84,30.28-14.67,46.77-9.79-1.25,5.53-3.83,9.61-6.82,14.44-18.04-3.23-36.47,7.22-39.91,26.12-2.96,16.25,7.19,31.7,22.76,36.99l132.56.06Z"/>
    <path d="M893.92,287.7c1.17-5.7,4.93-9.67,8.41-14.4l102.23.25c3.54,0,4.84-2.81,4.77-5.91l-.55-26.89c-3.69-1.38-6.99-.99-11.45-.81-.83-4.2-1-8.46.25-12.85l22.85-.27c2.84-.03,5.26,3.15,5.24,6.03l-.24,53.17c-.01,2.71-3.84,3.83-6.34,3.79l-125.19-2.11Z"/>
  </g>
  <g>
    <path d="M1268.96,1186.62c-.93,2.84-6.27,4.05-9.23,4.04l-76.95-.48c-12.98-.08-25.45-3.78-36.83-9.54-25.59-12.94-39.97-38.53-41.3-67.01-1.5-32.15,15.63-61.06,45.32-73.9,20.82-9.01,44.11-9.69,65.74-2.32l-8.12,15.72c-31.54-10.65-66.61,2.82-80.29,33.58-8.88,19.96-4.95,42.31,7.28,60.07,11.66,16.93,31.9,26.48,53.78,26.61l80.81.48c.62,3.95,1.37,7.91-.21,12.75Z"/>
    <path d="M1101.07,1063.4c-19.49,30.29-18.11,66.64,2.34,95.96l-21.97.3c-20.31-37.22-16.54-82.4,10.19-115.46,34.4-42.55,87.12-52.31,138.3-35.61l-8.31,17.2c-43.35-17.08-94.66-2.64-120.55,37.61Z"/>
    <path d="M1269.73,1107.51h-78s50.13-93.06,50.13-93.06c10.36,5.29,19.78,12.35,27.66,22.08l.21,70.98Z"/>
    <path d="M1181.61,1143.21l119.01-.1.03,16.7-121.96.06c-26.1-4.04-43.91-26.42-42.48-52.85,1.31-14.86,9.19-28.26,21.93-36.27,12.64-7.95,27.83-9.58,42.63-5.57-2.08,5.5-4.32,9.89-7.51,14.47-18.3-2.65-34.9,6.51-39.57,24.26-3.59,18.53,8.52,35.86,27.93,39.31Z"/>
    <path d="M1186.36,1117.23h100.16c1.76.01,3.24-.64,4.13-1.43,1.69-1.51,2-20.22.21-30.84-.91-2.36-7.09-2.19-9.98-1.65l-.31-13.12,20.89.18c1.94-.25,5.83,1.32,5.83,3.72l-.11,58.88-129.35-.04,8.53-15.7Z"/>
  </g>
  <g>
    <path d="M1518.41,950.56l81.6.71c0,4.1,1.3,9.13-.55,13.03-1.44,3.03-7.27,4.03-10.78,4.01l-73.51-.48c-19.69-.13-37.85-7.07-52.93-19.05-32.19-25.58-39.4-70.88-16.07-104.73,15.61-22.64,41.57-34.18,68.89-33.47,10.49.27,20.13.41,29.96,5.08l-7.71,15.73c-21.28-7.68-45.28-4.22-63.23,9.69-28.31,21.95-31.04,61.69-6.33,87.67,12.89,13.56,30.64,21.63,50.66,21.81Z"/>
    <path d="M1438.49,829c-27.6,30.18-30.78,73.21-7.62,107.22l-22.11.38c-14.53-28.35-16.7-61.58-3.72-90.97,26.15-59.23,94.31-79.34,154.51-58.7l-8.35,16.39c-39.75-13.87-84-5.7-112.7,25.69Z"/>
    <path d="M1600.37,884.69l-78.56-.25,50.18-92.58c11.74,6.08,20.55,13.45,28.47,22.92l-.09,69.9Z"/>
    <path d="M1510.36,920.38h128.39c1.34,5.53,1.13,10.64-.14,16.29l-131.36.11c-25.7-4.28-43.96-26.77-42.29-52.75,3.91-31.58,35.63-50.52,65.49-41.2l-7.72,14.32c-18.31-3.22-35.85,6.75-40.14,25.19-2.79,18.14,9.13,34.3,27.76,38.04Z"/>
    <path d="M1507.98,909.77c1.9-6.37,5.26-10.64,8.4-15.48l106.76-.11.23-31.7c-2.15-2.23-7.46-1.9-11.13-1.1-1.06-4.37-.83-8.49-.15-13.08l21.81-.05c3.17,0,5.85,2.7,5.85,6.02v50.82c.02,2.58-2,4.82-4.61,4.81l-127.16-.14Z"/>
  </g>
  <g>
    <path d="M370.2,951.26c.15,4.07,1.38,9.14-.4,13.07-1.39,3.06-7.27,4.06-10.74,4.04l-73.53-.5c-40.79-.28-78.02-30.9-81.38-73.17-2.93-36.81,17.95-68.56,52.95-79.64,18.98-6.01,39.04-5.79,58.79.11l-8.13,15.71c-18.54-5.95-38.13-4.34-55.07,5.17-29.06,16.32-39.12,51.61-22.86,80.83,11.78,21.17,33.86,33.61,58.42,33.79l81.95.59Z"/>
    <path d="M227.32,813.94c-41.59,27.06-52.89,80.92-24.61,122.18l-21.95.26c-16.38-30.51-16.81-67.3-.55-97.81,28.62-53.73,93.37-70.91,149.84-51.48l-7.92,16.26c-32.06-10.93-66.35-7.93-94.81,10.58Z"/>
    <path d="M370.56,884.61l-78.41-.04c18.06-31.86,34.93-60.9,50.62-92.51,11.03,6.08,20.86,12.61,27.68,22.72l.11,69.83Z"/>
    <path d="M279.52,920.27l128.06.1c2.16,5.4,1.93,10.76,0,16.28l-131.12.11c-29.92-5.67-47.81-36.5-37.62-65.02,9.89-25.11,37.38-36.46,62.65-28.66l-7.92,13.9c-16.89-2.95-34.26,5.62-39.18,22.16-5.46,18.34,6.15,35.92,25.12,41.13Z"/>
    <path d="M278.55,909.78c1.85-6.31,5.04-10.53,8.7-15.42l99.85-.12c2.99,0,6.27-.37,6.26-4.06l-.07-28.38c-4.21-1.07-7.42-.69-11.58-.73-.74-4.36-.77-7.72.15-12.56l23.37.06c2.53,0,4.35,3.4,4.35,5.75v50.75c.01,2.16-1.82,4.83-4.35,4.83l-126.68-.12Z"/>
  </g>
  <g>
    <path d="M1268.77,555.31c1.26,3.05,1.49,7.85.06,11.48-1.08,2.74-5.79,4.11-8.99,4.09l-78.16-.55c-17.5-.12-34.35-5.22-47.85-16.39-28.02-23.19-36.83-62.84-21.56-95.82,13.05-28.2,41.38-44.19,71.98-44.21,10.67,0,20.38.43,31.01,5.03l-7.5,15.55c-13.89-5.26-27.28-4.91-40.94-.88-33.82,9.99-52.37,45.04-40.47,78.3,8.28,23.16,27.21,39.91,52.83,42.16l89.58,1.24Z"/>
    <path d="M1103.55,441.78c-21.61,30.61-21.42,68.2-.05,98.35l-21.63.55c-24.83-45.3-13.33-93.27,23.85-127.8,21.93-20.37,49.21-30.88,79.33-30.17,15.53.36,30.25,1.34,44.83,7.61l-7.94,16.6c-42.71-16.03-91.62-3.02-118.38,34.88Z"/>
    <path d="M1269.72,487.42l-77.03.14c17.35-30.11,33.42-59.84,49.27-91.94,10.38,5.11,19.77,12.33,27.53,22.03l.23,69.77Z"/>
    <path d="M1181.62,524.58l119.15-.12-.16,16.37-120.91-.66c-23.38-.13-40.52-21.44-43.1-43.47-1.93-16.5,6.14-32.43,17.69-41.76,13.33-10.76,30.72-13.13,47.02-8.49l-8.07,14.42c-17.8-2.89-33.96,6.13-39.16,23.15-4.37,18.75,7.77,36.91,27.54,40.54Z"/>
    <path d="M1187.08,498.18l100.75-.03c2.76,0,4.15-2.38,4.13-4.66l-.3-27.56c-3.7-1.82-7.17-1.46-11.08-1.09l.03-13.53,22.02.14c3.41.49,4.99,2.72,4.96,5.98l-.37,56.72-129.04-.11c2.22-6.36,5.32-10.05,8.91-15.85Z"/>
  </g>
  <g>
    <path d="M655.87,1173.88c1.17,4.01.64,8.86.39,13.82-2.91,1.75-6.4,2.97-10.06,2.94l-78.83-.64c-43.28-2.4-75.34-34.79-76.5-77.84-.84-31.23,15.84-59.22,44.71-72.04,20.65-9.17,44.08-10.34,66.31-2.8l-7.34,16.19c-31.88-12.16-70.3,3.65-81.88,36.22-7.69,21.63-2.82,43.5,11.43,60.78,12.58,15.26,31.83,22.86,51.8,22.96l79.97.41Z"/>
    <path d="M491.31,1057.78c-23.44,31.08-23.14,70.53-2.32,101.95l-21.65.11c-16.88-31.62-16.67-69.54,1.15-101.4,28.9-51.66,92.6-69.6,147.82-49.67l-8.4,16.79c-41.59-15.88-89.66-3.5-116.59,32.21Z"/>
    <path d="M656.47,1107.66l-78.24-.25c18.1-31.24,34.26-60.8,50.14-92.79,11.12,4.78,20.39,12.67,28.06,22.43l.05,70.61Z"/>
    <path d="M565.85,1143.11l122,.03.17,16.71-121.69-.39c-15.48-.05-29.62-11.61-36.3-22.76-8.87-14.8-9.63-31.18-2.68-46.08,10.37-22.23,35.77-32.49,59.41-25.3-1.21,5.3-3.82,9.06-6.19,13.68l-13.51.69c-17.53,2.73-29.14,17.34-27.15,35.1,2.19,13.62,11.72,24.23,25.94,28.32Z"/>
    <path d="M572.87,1117.39l102.53-.37c2.61,0,3.69-3.81,3.65-5.96l-.48-26.87c-3.57-1.6-6.99-.98-10.97-1.02-.64-4.69-.67-8.01.02-12.61l21.65-.18c2.63-.13,5.3,1.67,5.3,4.53l-.04,58.03-130,.03c2.02-6.12,4.77-9.73,8.34-15.58Z"/>
  </g>
  <g>
    <path d="M984.58,951.3c.39,4.51,1,8.6-.14,12.66-.84,2.99-5.96,4.32-9.23,4.31l-70.84-.29c-41.18-.17-78.2-26.73-84.41-67.94-3.84-25.48,4.41-49.9,22.61-67.28,22.42-21.4,57.89-27.28,87.65-17.18l-7.58,16.06c-33.18-12.37-73.06,4.93-83.14,39.65-6.34,21.84.27,43.42,15.53,59.1,12.57,12.92,29.74,20,48.05,20.17l81.51.73Z"/>
    <path d="M841.07,816.46c-39.07,27.23-51.13,77.89-23.37,119.75l-21.65.46c-20.93-38.73-15.01-86.8,15.63-118.77,24.47-25.53,57.25-38.83,92.6-37,13.94.72,26.97,1.55,40.25,7.1l-8.14,16.2c-32.4-12.29-67.17-7.37-95.32,12.25Z"/>
    <path d="M984.75,884.88l-77.77-.41c17.94-31,34.71-59.56,49.06-91.16,12.08,5.59,20.58,14.17,28.82,23.52l-.11,68.05Z"/>
    <path d="M894.3,920.29l127.77.07c1.34,4.81,1.39,10.13-.15,16.2l-130.68.18c-25.98-5.08-43.41-29.2-40-55.38,5.38-30.09,35.57-47.23,64.79-38.25l-7.52,13.97c-18.24-2.68-35.26,6.69-40.06,24.37-3.61,17.73,7.36,34.46,25.84,38.83Z"/>
    <path d="M893.28,909.81c1.67-6.43,5.05-10.62,8.79-15.54l100.96.04c2.05,0,4-2.2,3.99-4.04l-.26-28.49-11.25-.76.1-12.18,21.05-.33c4.24-.07,6.85,2.97,6.86,7.12l.09,49.5c0,2.59-1.97,4.83-4.64,4.83l-125.69-.13Z"/>
  </g>
  <g>
    <path d="M1269.17,1796.74c.63,4.33,1.21,8.74-.3,13.09-.81,2.34-5.34,3.55-7.99,3.55l-75.7-.22-19.32-2.89c-38.26-8.05-62.96-41.61-61.37-80.67,1.05-25.98,14.32-50.06,37.25-63.17,22.54-12.89,49.6-14.88,74.07-6.4l-8.18,15.73c-30.25-10.64-64.75,1.99-79.2,30.83-10.02,20.01-6.97,42.78,5.03,61.36,11.24,17.4,31.61,28.09,53.79,28.24l81.9.55Z"/>
    <path d="M1108.92,1675.54c-26.57,30.73-28.81,73.14-5.72,106.63l-21.81.34c-15.9-29.27-17.14-63.56-2.92-93.97,26.6-56.89,93.14-78.29,151.36-56.93l-8.04,16.66c-39.39-14.91-84.54-5.49-112.87,27.27Z"/>
    <path d="M1269.77,1730.48l-77.9-.05,50.19-93.24c10.94,5.73,19.95,12.54,27.5,22.01l.21,71.28Z"/>
    <path d="M1181.62,1766.01l118.98-.11.04,16.76-121.91-.03c-30.68-4.82-49.57-35.19-40.07-64.57,9.27-26.06,36.67-38.17,62.78-30.04l-8.46,14.67c-17.24-2.96-33.34,5.52-38.72,21.91-5.13,19.1,7.06,37.92,27.36,41.41Z"/>
    <path d="M1186.4,1740.14l102.35-.24c2.59,0,3.26-4.12,3.19-6l-.93-26.14c-.91-2.42-7.26-2.3-10.13-1.59-.9-4.59-.6-8.45-.32-13.19l22.19.1c2.04-.08,4.65,1.53,4.65,3.77l-.14,59-129.21-.27,8.35-15.45Z"/>
  </g>
  <g>
    <path d="M327.74,161.98c3.87,3.85-1.64,10.2-6.58,19.43-24.21-8.36-50.6-8.78-74.35.19-25.71,9.71-45.08,30.04-53.31,51.93-11.03,29.34-7.35,57.25,8.64,82.58l-21.17.17c-30.98-58.62-2.57-128.54,58.56-152.16,1.73-.67,2.68-.77,3.7-2.12l84.51-.02Z"/>
    <path d="M370.11,329.31c.47,4.67,1.35,9.52-.3,13.62-1.54,3.83-7.85,5.17-12.07,5.13l-74.91-.6c-24.21-.19-47.03-10.89-62.1-29.75-10.16-12.72-15.06-28.67-16.27-44.53-3.62-47.72,33.75-85.74,81.16-84.16,10.48.35,20.09-.01,30.21,5.08l-7.65,16.08c-11.7-5.17-23-5.63-35.1-3.41-33.49,6.12-56.15,37.45-50.11,70.87,5.55,30.65,30.09,51.62,61.37,51.63l85.76.03Z"/>
    <path d="M370.39,260.49l-77.18.49c5.07-12.3,11.27-22.6,17.13-34.06l31.04-59.15,14.24,9.67c5.52,4.31,10.53,8.93,14.74,14.73l.03,68.33Z"/>
    <path d="M277.05,299.32l130.58-.21c2.19,5.03,2.06,11.02-1.37,16.69l-132.45.1c-18.94-4.66-31.31-18.57-35.74-35.54-4.86-18.69,1.23-38.41,16.59-50.27,12.91-9.97,30.13-12.5,46.24-8.09l-7.25,14.3c-16.52-2.68-31.67,4.71-38.46,19.74-6.28,17.91,2.77,37.76,21.86,43.28Z"/>
    <path d="M278.95,287.12c.22-4.97,3.85-9.27,7.13-14.22l106.62-.1.38-32.23-11.77-.83v-12.99s23.01-.13,23.01-.13c2.72-.02,5.45,3.38,5.43,6.23l-.38,55.24c-6.91,2.04-12.94.3-19.68.23l-110.75-1.2Z"/>
  </g>
  <g>
    <path d="M655.62,555.54c1.49,3.22.95,7.34.62,10.97-.24,2.61-3.24,4.28-5.96,4.29l-55.89.15c-4.37.01-6.52,2.32-8.41,5.51-18,2.28-36.73-2.9-52.67-11.17-27.4-14.22-40.95-42.67-40.79-73.24.22-43.81,35.59-78.44,79.48-78.08,10.8.09,21.09.7,30.91,5.36l-7.82,15.29c-24.83-9.27-53.19-1.85-70.54,18.43-20,23.36-17.95,54.89-1.68,79.63,12.77,19.43,31.44,31.08,55.67,30.12l35.62-1.41,41.46-5.84Z"/>
    <path d="M478.59,466.57c-8.63,26.2-3.91,52.33,10.41,74.28h-21.11c-11.76-21.9-14.55-46.3-8.88-70.71,4.79-20.62,16.61-37.64,31.16-52.67,20.65-21.33,47.31-34.33,77.29-34.63,17.04-.17,32.98,1.15,49.08,7.38l-7.93,16.88c-13.55-6.03-26.7-6.93-41.55-6.71-40.17.6-75.65,27.26-88.47,66.18Z"/>
    <path d="M656.68,487.07l-75.84-.13c16.64-30.93,33.67-59.58,48.53-91.24,10.81,5.23,19.61,12.75,27.27,22.34l.04,69.04Z"/>
    <path d="M616.39,526.61c24.61-.04,47.32-2.64,71.48-1.92.63,4.93.67,9.92-.16,16.14l-97.41.08-29.15-.08c-27.49-5.87-42.91-34.7-35.47-60.53,7.68-26.67,34.81-42.21,62.56-33.7l-7.62,14.6c-16.59-3.47-32.29,5.72-38.07,20.43-6.14,15.64,1.39,32.76,16.15,40.71,3.29,1.77,6.36,4.34,10.37,4.33l47.31-.07Z"/>
    <path d="M566.33,513.99c.16-6.43,4.46-10.71,8.11-15.79l104.21-.19-.09-31.63c-1.13-2.42-7.55-2.18-10.59-1.28-.88-4.4-.81-8.39-.09-13.32l22.68-.2c2.21.29,4.13,2.1,4.12,4.53l-.36,58.13-127.99-.24Z"/>
  </g>
  <g>
    <path d="M985.42,1574.26c.7,4.22,1.17,8.49-.13,12.45-.93,2.83-6.69,4.48-10.07,4.45l-76.14-.48c-19.63-.12-37.46-7.53-52.35-19.85-37.17-30.75-37.57-88.68-.62-119.85,21.57-18.19,58.36-23.79,84.74-13.08l-8,14.97c-24.3-7.75-52.46-2.19-69.88,16.67-23.51,25.46-20.63,63.65,4.82,86.35,12.9,11.51,28.89,17.81,46.52,17.91l81.11.46Z"/>
    <path d="M850.76,1431.42c-46.53,25-63.76,81.08-33.37,127.73l-21.68.15c-17.38-32.86-16.45-71.08,2.35-103.06,29.28-49.83,92.74-66.73,147.34-47.67l-8.32,17.12c-28.45-10.38-59.51-8.66-86.32,5.75Z"/>
    <path d="M985.91,1506.9h-78.75s50.38-92.53,50.38-92.53c11.42,5.86,20.9,13.19,28.3,22.85l.07,69.68Z"/>
    <path d="M894.25,1543.03l129.36.08c.39,5.9,1.15,10.78-1.35,16.43l-129.77-.43c-15-.05-28-12.37-34.25-22.33-9.23-14.68-9.88-30.57-3.41-45.19,10.31-23.29,36.6-33.85,61.2-26.91l-7.55,14.36c-17.32-2.72-32.99,5.86-39.23,21.89-5.16,18.62,5.51,37.04,25.01,42.1Z"/>
    <path d="M901.59,1516.83l102.51-.17c3.22,0,4.36-3.32,4.33-6.06l-.34-26.11c-3.82-1.56-7.16-1.33-11.44-1v-12.91s20.04-.14,20.04-.14c2.32-.02,4.21.49,5.59,1.69,1.59,1.38,2.21,3.58,2.18,6.35l-.61,53.81-130.72.15c1.75-5.95,4.89-9.57,8.47-15.62Z"/>
  </g>
  <g>
    <path d="M370.17,1574.37c.34,4.57,1.23,9.12-.33,12.82-1.1,2.6-6.37,3.98-9.45,3.97l-76.22-.41c-21.34-.12-41.45-8.89-56.63-23.45-13.83-13.27-21.57-31.15-23.28-49.9-3.3-36.35,17.63-68.77,52.13-80.07,19.4-6.35,39.95-6.34,59.82-.05l-8.2,15.75c-27.93-9.29-59.09-.25-75.82,24.22-15.91,23.27-12.56,53.06,5.99,74.26,12.41,14.18,30.52,22.1,49.78,22.25l82.2.64Z"/>
    <path d="M202.04,1558.65c-6.69,1.91-13.53.45-21.15,1.04-19.87-36.05-16.58-81.62,9.72-114.85,32.84-41.5,89.54-53.83,139.91-36.33l-8.31,17.05c-38.46-13.68-81.05-5.44-110.19,23.32-28.56,29.79-33.83,73.74-9.98,109.77Z"/>
    <path d="M370.6,1507.29l-78.1-.44,50.19-92.61c10.77,4.93,20.22,12.5,27.68,22.53l.23,70.52Z"/>
    <path d="M279.45,1543.05l128.84-.04c.79,5.46,1.11,10.79-.62,16.46l-131.21.12c-26.94-5.63-44.66-30.97-39.84-58.07,6.79-29.04,36.65-45.16,65.18-36.55l-7.91,14.08c-9.46-1.3-17.72.4-25.54,5.09-11.47,6.88-17.77,20.69-14.41,33.93,3.15,12.41,12.54,21.41,25.5,24.99Z"/>
    <path d="M278.93,1532.34c1.27-6.23,4.91-11.32,9.15-15.62l104.75-.18.46-31.97c-4-1.58-7.22-1.24-11.61-.91-.69-4.47-.79-8.53.08-13.11l21.38-.07c3.95-.01,6.47,2.85,6.47,6.71l.04,50.7c0,3.1-2.05,4.58-5.23,4.58l-125.49-.13Z"/>
  </g>
  <g>
    <path d="M1599.33,1574.28c1.34,3.38,1.91,9.18.12,12.88-1.47,3.03-7.27,4.03-10.75,4.01l-73.5-.34c-41.89-.2-79.47-31.38-82.42-74.82-2.43-35.71,18.48-66.94,52.23-78.59,19.27-6.66,39.92-6.47,60.25-.46l-7.78,16.11c-22.69-7.71-47.71-3.21-65.97,12.38-25.72,21.95-27.53,59.55-5.18,84.75,13.5,15.22,32.15,23.43,53,23.56l80.01.5Z"/>
    <path d="M1434.09,1456.76c-23.58,30.43-24.96,70.34-3.39,102.3l-21.8.53c-28.91-55.33-5.49-121.25,51.36-147.18,31.13-14.2,66.52-15.06,99.56-3.92l-8.44,16.94c-41.82-14.59-90-3.89-117.29,31.33Z"/>
    <path d="M1600.44,1506.94l-78.52-.06,29.11-52.62,20.84-40.15c11.24,5.59,21.06,13.01,28.68,23.29l-.1,69.54Z"/>
    <path d="M1510.39,1543.12l128.83-.1c.51,5.15.65,9.86-.33,16.26l-131.42.29c-28.89-4.82-47.9-32.17-41.36-60.63,8.31-27.74,36.77-42.43,64.63-34.15l-7.46,14.3c-18.01-2.75-34.67,6.44-40.2,23.62-4.3,18.89,7.53,36.53,27.3,40.4Z"/>
    <path d="M1508.51,1532.41c.89-6.19,4.5-10.72,7.93-15.6l106.91-.3.08-31.54c-1.55-2.37-7.59-2.04-11.17-1.18-1.17-4.36-.64-8.36-.5-13.15l21.03-.14c3.73-.02,6.93,2.73,6.94,6.71l.07,50.75c0,2.35-1.88,4.53-4.46,4.53l-126.84-.08Z"/>
  </g>
  <g>
    <path d="M656,1797.03c.68,3.89.78,8.03.22,12.64-.23,1.89-4.09,3.76-6.4,3.74l-80.3-.44c-13.37-.07-26.11-4.12-37.79-10.1-27.98-14.33-42.48-43.12-41.12-74.59,1.38-31.81,22.58-59.29,53.09-68.98,19.15-6.08,38.97-6.21,58.2.68l-7.72,16.13c-30.42-11.99-68.33,3.19-80.64,33.27-8.65,21.13-5.53,42.81,7.31,60.43,12.57,17.24,32.39,26.16,53.77,26.38l81.37.83Z"/>
    <path d="M495.13,1675.18c-27.08,30.71-29.44,73.13-6.46,107.02l-21.45.59c-30.53-55.86-4.58-125.05,54.59-149.57,30.21-12.52,63.69-12.72,94.28-1.87l-7.91,16.97c-39.29-14.96-84.54-5.49-113.06,26.86Z"/>
    <path d="M656.48,1730.68l-78.25-.24,50.16-93.14c11.04,4.78,20.28,12.75,28.1,22.39v70.99Z"/>
    <path d="M565.88,1765.88l121.96.13.15,16.81-121.45-.77c-29.69-.19-49.81-32.04-42.72-59.78,7.23-28.31,35.91-42.45,63.35-34.4l-7.82,14.87c-18.98-3.66-37.45,7.74-39.77,27.12-2.03,16.97,9.38,31.23,26.29,36.02Z"/>
    <path d="M572.95,1740.15l100.08-.03c3.94,0,6.36-2.05,6-6.36-.73-8.73,1.3-17.76-1-26.35-1.12-2.41-7.69-1.56-10.08-1.09-1.29-4.89-.97-8.41-.27-13.06l21.59-.17c2.72-.19,5.42,1.68,5.41,4.66l-.2,58.05-129.8-.15c1.64-6.06,4.53-9.57,8.26-15.49Z"/>
  </g>
  <path d="M1566.56,1832.59c-12.34-8.53-25.89-13.25-40.77-13.34l-79.37-.47c.16-4.39-1.16-9.24.64-13.12,1.34-2.87,7.2-3.97,10.56-3.96l69.53.3c22.54.1,52.05,11.14,64.31,30.56l-24.9.02Z"/>
  <path d="M951.71,1832.74c-12.25-8.87-25.8-13.34-40.76-13.45l-78.78-.54c-.4-3.93-1.73-9.69.66-13.57,1.79-2.91,7.82-3.51,11.3-3.49l69.55.47c21.98.15,51.32,11.38,63.58,30.27l-25.56.31Z"/>
  <path d="M336.99,1832.5c-12.34-8.6-25.89-13.19-40.84-13.27l-78.66-.41c-.05-3.88-1.3-8.54.24-12.71,1.16-3.12,6.82-4.37,10.27-4.36l69.52.27c22.47.09,52.09,10.89,64.82,30.52l-25.35-.04Z"/>
  <path d="M1202.86,891.4l-.7,58.38c-6.51,3-13.06,2.53-19.75,2.07l.52-66c4.48-15.28,18.13-25.33,34.25-24.81,4.4.39,12.21-.3,14.54,3.71,2.47,4.25.67,11.02.85,15.47-15.16-5.8-29.59,1.54-29.7,11.2Z"/>
  <g>
    <path d="M866.34,740.76c-1.67-.62,1.22-4.29,3.38-4.39l37.16-1.83c7.51-.37,11.8-3.55,18.22-4.88,42.37-8.76,75.06-41.72,79.04-85.54,1.74-19.16-3.34-37.28-15.35-53.71l21.5-.78c25.73,45.66,10.39,103.55-31.48,134.81-31.96,23.86-74.35,30.43-112.48,16.32Z"/>
    <path d="M853.68,734.19c-10.36-5.16-18.3-12.92-25.6-21.57v-69.74s73.69.29,73.69.29c-16.97,30.2-33.4,58.68-48.1,91.01Z"/>
    <path d="M901.78,668.24c16.93,2.65,32.72-5.37,38.51-21.36,5.6-17.82-5.26-36.63-23.72-40.58l-113.92-.23c-3.07-3.26-2.1-14.93,3.43-15.94l108.9-.09c22.27-.02,39.64,19.61,42.69,39.29,3.52,22.72-8.86,43.55-29.68,52.07-10.87,4.45-21.98,5.87-33.72,1.78l7.51-14.93Z"/>
    <path d="M879.6,712.16l7.41-16.58c31.49,12.46,68.81-5.02,80.54-36.16,9.08-24.11,2.59-48.7-14.48-66.81l23.08-.34c26.06,41.61,12.78,95.86-31.81,116.36-20.07,9.23-42.62,10.66-64.74,3.53Z"/>
    <path d="M810.84,633.35c-7.9,0-5.37,15.65-4.42,30.35.76,2.51,7.11,2.51,9.73,2.05,1.26,4.52.59,8.2.5,12.95l-23.08.23c-2.34.02-4.25-2.72-4.24-5.1l.19-55.6c5.52-2.15,10.48-.63,15.99-.62l110.98.22c-1.99,5.84-5.34,10.29-9.17,15.44l-96.49.07Z"/>
    <path d="M936.39,580.56c-9.85-.47-18.32-4.82-28.12-4.84l-76.18-.12c.2-4.86-1.29-9.76.85-13.41,1.67-2.84,7.78-3.4,11.2-3.37l70.77.61c20.2.17,39.45,7.82,54.23,22.67l-32.74-1.55Z"/>
  </g>
  <g>
    <path d="M1479.76,1361.28c1.11-6.34,4.42-11.12,7.77-16.87,41.51,15.3,88.49,1.61,114.46-34.27,22.16-30.6,23.44-68.73,1.32-100.31l21.42.05c25.56,45.82,11.38,101.24-29.79,133.4-32.48,24.8-74.98,32.01-115.2,17.99Z"/>
    <path d="M1467.64,1354.6c-10.2-5.34-17.78-12.34-25.04-20.55l-.05-71.06,74.05.18-48.96,91.43Z"/>
    <path d="M1516.34,1288.67c18.47,2.35,34.6-7.3,39.36-24.85,3.25-17.78-7.97-34.43-25.89-37.95l-113.29-.06c-2.67-4.51-1.18-15.96,5.26-15.96l108.08-.04c22.1,0,38.9,19.15,42.51,38.68,4.12,22.33-8.37,43.5-28.86,52.38-11.36,4.92-23.19,6.03-35,2.42l7.84-14.63Z"/>
    <path d="M1494.43,1332.19c1.37-6.46,4.31-10.88,7.46-16.06,30.92,10.11,65.69-3.83,79.09-33.68,11.16-24.86,4.3-53.04-14.41-72.12l22.86-1.38c10.45,14.13,14.25,30.26,14.46,47.69.31,26.06-11.11,49.25-32.36,64.55-22.17,15.36-49.98,19.51-77.1,11Z"/>
    <path d="M1419.65,1284.36c3.66,2.35,6.98,1.69,10.57,2.22.58,4.36.56,8.01-.03,12.42l-20.72.47c-1.9.04-3.53-.39-4.62-1.4s-1.82-3.09-1.79-5.38l.64-54.82,19.3-.14,108.13.17-9.16,15.38-97.66.07c-2.46,0-4.64,2.29-4.64,4.54l-.03,26.45Z"/>
    <path d="M1556.12,1202.42c-11.05-2.44-20.39-6.58-31.58-6.59l-78.06-.08c-.1-4.28-.92-8.34.53-12.65.95-2.82,5.99-4.55,9.31-4.53l72.13.52c21.03.15,41.53,8.42,55.86,23.52-9.82.12-19.08,1.83-28.19-.19Z"/>
  </g>
  <g>
    <path d="M865.5,1361.08c1.71-6.37,4.68-11.44,7.81-17.23,57.65,22.74,122.21-14.09,130.74-74.19,3.12-21.95-2.41-41.9-15.43-59.66l21.6-.51c25.43,44.44,11.93,101.07-28.32,132.9-32.32,25.84-76.02,33.13-116.4,18.69Z"/>
    <path d="M853.5,1354.7c-9.98-5.49-18.2-12.19-25.25-21.04l-.15-70.56,74.12.2c-17.61,30.67-33.79,59.67-48.71,91.4Z"/>
    <path d="M901.82,1288.5c18.86,2.99,36.78-7.29,39.98-26.81,2.66-16.23-9.38-35.22-26.8-35.32l-113.3-.62c-.43-3.38-.75-6.99.05-10.45.85-3.65,4.98-6.13,9.04-6.09l106.92.96c24.34.22,40.82,24.63,40.94,46.97.12,23.58-17.42,43.71-40.99,47.49-7.91,1.27-15.04,1.43-23.05-1.45l7.22-14.67Z"/>
    <path d="M942.05,1329.78c-20.03,8.41-41.97,8.89-62.22,2l7.6-16.3c30.49,11.9,67.76-4.08,80.07-34.68,10.13-25.19,2.98-52.21-15.62-70.08l23.88-.36c27.46,42.46,14.1,99.36-33.71,119.42Z"/>
    <path d="M806.35,1283.71c.08,3.02,6.9,3.19,9.75,2.42,1.42,4.37.68,8.12.54,12.82l-21.95.54c-2.92.07-5.34-2.48-5.32-5.5l.2-55.48c5.54-2.14,10.45-.88,15.95-.87l111.11.2c-2.17,5.99-5.72,10.25-9.3,15.47l-97.85.04c-1.83,0-3.85,2.01-3.81,3.59l.67,26.76Z"/>
    <path d="M969.49,1202.38c-25.91,2.45-44.84-6.96-67.89-6.85l-69.5.34c-.22-5.29-1.16-9.47.65-13.76.97-2.32,5.9-3.59,8.74-3.56l73.46.64c20.22.18,39.84,7.9,54.53,23.19Z"/>
  </g>
  <g>
    <path d="M407.88,1272.16c-10.95,73.53-88.35,113.54-157.38,88.8l8.1-16.59c47.74,17.65,101.41-3.28,123.3-48.67,13.69-28.38,11.42-60.43-7.35-85.75l21.94-.4c10.48,19.41,14.65,40.7,11.38,62.61Z"/>
    <path d="M238.77,1354.49c-9.7-4.71-17.31-11.91-24.95-20.06l-.21-71.34,73.99.2c-17.8,30.05-33.54,58.83-48.83,91.2Z"/>
    <path d="M287.77,1288.47c17.96,2.67,34.45-6.71,38.61-24.56,3.81-16.39-8.11-37.33-26.2-37.45l-112.08-.72c-1.29-2.3-.68-4.88-.91-7.4-.38-4.29,2.28-9,7.46-8.97l106.79.51c17.81.09,31.73,13.59,37.91,27.43,7.55,16.9,5.61,34.6-5.6,48.92-12.57,16.05-33.77,22.4-54.03,17.25,1.86-5.53,4.7-9.63,8.05-15.01Z"/>
    <path d="M265.02,1331.95l7.32-16.46c32.65,12.6,71.9-5.77,82-39.4,6.92-23.06.53-47.17-15.75-64.96h23.08c25.88,41.78,13.87,96.47-32.14,117.79-20,8.72-42.52,10.39-64.5,3.03Z"/>
    <path d="M190.87,1285.08l11.02,1.58c.66,4.21.75,8,0,12.26l-22.02.53c-2.79-.06-5.46-2.39-5.44-5.45l.26-56.43,127.24.3-9.16,15.41-98.05.09c-2.66,0-4.02,2.4-4.01,4.54l.18,27.16Z"/>
    <path d="M324.59,1202.65c-9.19-4.82-18.91-5.93-29.25-6.87l-77.8-.27c-.15-4.75-1.21-9.3.55-13.24,1.22-2.72,6.75-3.8,9.92-3.77l73.39.76c19.63.2,38.52,8.09,52.1,22.11l-28.91,1.28Z"/>
  </g>
  <path d="M261.04,1698.4l-.36,53.48c-5.33,3.54-12.26,3.16-17.88,2.47l.13-52.68c.05-18.12,11.88-33.36,30.63-32.54,4.62.2,9.71.2,13.26,2.85l-.61,15.74c-5.91-2.52-11.07-3.72-16.49-1.5-3.59,1.47-8.65,5.63-8.7,12.19Z"/>
  <path d="M1781.43,694.65c4.93,1.35,9.94,2.79,15.2,1.25,5.48-1.6,9.27-6.81,9.27-12.59l-.04-48.84c5.83-2.16,11.15-2.7,17.75-2.68l-.37,57.81c-.06,9.2-7.91,16.49-14.04,20.06-8.89,5.16-18.62,5.12-27.44,1.22-1.17-5.22-1.22-8.63-.32-16.22Z"/>
  <path d="M1782.21,1332.21c-2.59-3.86-1.25-11.03-.93-15.96,9.65,4.13,19.9,2.75,24.48-7.12l.17-53.18c5.67-2.66,11.37-2.96,17.82-2.94l-.33,57.02c-.05,9.04-7.16,16.96-13.31,20.83-8.38,5.28-19.11,6.63-27.9,1.35Z"/>
  <path d="M1237.07,951.58c-2.4.13-5.09-1.07-5.12-3.88l-.32-33.23c-.08-7.86-8.2-11.45-15.95-9.3l-.55-18.16,16.91.9c5.72.31,15.74,7.12,15.85,13.84l.77,49.22-11.58.6Z"/>
  <g>
    <path d="M1268.01,207.65c-33.54-18.65-75.92-16.56-107,4.83-21.06,14.49-35.11,36.33-35.21,61.73l-.28,70.96-20.9.03.48-70.95c.19-28.32,14.39-52.93,35.47-71.27,45.02-39.16,119.36-37.17,161.21,5.23,18.58,18.82,28.06,43.49,26.66,70.41l-34.45.12-.36-19.15,12.41-1.23c-5.42-21.6-17.82-39.48-38.03-50.72Z"/>
    <path d="M1252.39,242.02c-21.23-17.95-53.04-16.13-72.19,3.1-8.04,8.08-11.56,17.95-11.57,29.13l-.11,71.15-22.4-.16.61-76.35c.2-24.91,18.58-45.41,41.38-54.33,41.4-16.2,92.58,3.79,98.73,45.91,1.86,12.72-.19,25.1-.32,37.84l-.49,47-20.58-.17.04-74.91c0-10.92-4.21-20.71-13.1-28.22Z"/>
    <path d="M1203.35,271.56l-1.1,58.79c-6.05,3.49-12.92,3.96-20.1,2.9l1.16-64.06c.33-18.56,27.85-33.61,51.23-24.52.81,5.97.83,10.51.2,17.15-15.27-5.92-31.26,2.23-31.4,9.74Z"/>
    <path d="M1250.41,332.95l-16.06-.24-1.32-36.95c-.27-7.46-9.9-9.75-16.67-8.52l-.52-17.07c16.34-3.88,33.83,6.2,33.93,13.44l.65,49.34Z"/>
  </g>
  <g>
    <path d="M1251.84,1445.56c-32.39-13.51-69.91-7.9-96.28,13.78-19.98,16.43-28.33,39.28-28.33,64.57l-.02,62.74-20.67.09-.19-68.14c-.12-42.87,30.87-80.5,70.68-93.57,21.38-7.02,43.72-7.91,65.7-3,44.36,9.9,79.8,51.36,78.55,98.3l-32.75.24-.13-18.75,10.62-.54c-6.24-25.16-22.44-45.41-47.18-55.73Z"/>
    <path d="M1252.48,1489.24c-12.9-14.95-31.83-19.7-50.17-15.06-17.93,4.54-30.55,17.96-33.35,36.6l-.4,75.93-21.76.2.25-73.63c.08-22.37,12.79-41.62,32.31-52.63,19.47-10.98,43.52-11.69,64.3-3.4,22.25,8.88,36.81,28.72,39.68,52.27l.06,77.1h-21.54s-.09-72.02-.09-72.02c-.01-9.23-3.07-18.14-9.29-25.35Z"/>
    <path d="M1202.8,1514.18l-.61,57.77c-6.1,3.39-13.65,2.92-19.91,2.06l.05-54.07c.02-20.5,13.91-36.53,34.99-35.29,3.9.23,11.55-.11,13.6,3.63,2.44,4.43.97,10.74,1.04,15.59-14.85-5.8-29.06,1.14-29.16,10.31Z"/>
    <path d="M1248.14,1573.22c-5.76,1.35-10.75,1.14-16.62-.1l-.82-37.18c-.15-6.78-8.54-9.56-15.03-8.05l-.63-17.94,16.81,1.08c5.25.34,14.81,7.09,14.98,13.27l1.31,48.92Z"/>
  </g>
  <g>
    <path d="M630.28,818.92c-31.12-9.43-64.6-3.35-88.97,16.99-16.27,13.59-27.69,32.11-27.84,53.26l-.53,74.97-20.84-.02.11-69.7c.09-53.69,47.58-96.41,101.96-99.2,25.71-1.32,50.12,4.37,70.84,18.95,27.25,19.17,43.16,49.22,42.54,82.96l-35.36.05.17-18.33,12.69-.73c-6.38-28.24-26.24-50.56-54.78-59.21Z"/>
    <path d="M620.59,852.63c-14.28-6.17-30.16-4.82-43.2,1.99-14.84,7.76-23.05,21.77-23.07,38.45l-.11,71.01-21.7-.03-.05-70.93c-.02-21.73,9.59-40.88,27.9-52.87,21.38-14.01,49.6-15.94,72.45-4.91,24.06,11.61,35.12,34.39,34.95,60.43l-.46,68.32-21.44.03-.17-76.27c-.03-15.69-10.35-28.85-25.11-35.22Z"/>
    <path d="M588.13,891.09l-.67,59.03c-6.41,2.6-13.23,2.19-19.78,1.74l.4-57.46c.08-11.99,4.56-22.48,15.05-28.63,10.02-5.88,22.55-6.33,33.23-1.93l.19,16.73-6.94-1.87c-8.37-2.26-21.36,1.8-21.48,12.39Z"/>
    <path d="M632.77,951.2l-16.52-.12-.49-38.05c-.1-7.54-8.89-10.1-16.05-8.02l-.11-18.42c16.1-3.24,31.66,7.32,31.84,14.39l1.33,50.22Z"/>
  </g>
  <g>
    <path d="M637.08,1445.51c-33.59-13.72-71.67-7.64-98.44,16.03-14.78,13.07-25,30.97-25.15,50.65l-.59,74.42-20.95.17.28-72.91c.08-21.22,8.96-40.1,22.46-56.2,34.15-40.69,95.5-49.98,140.37-25.27,32.47,17.88,52.6,51.24,52.36,88.03l-35.45-.15.33-18.44,11.9-.65c-6.16-25.34-22.26-45.52-47.12-55.67Z"/>
    <path d="M624.23,1478.53c-18.55-10.6-41.23-7.03-56.71,6.58-9.78,8.6-13.31,20.53-13.3,33.52l.08,68.08-21.92-.02.09-72.1c.03-21.35,10.92-40.24,28.99-51.67,22.68-14.34,52.17-15.08,75.04-1.6,21.47,12.66,31.28,34.21,31.17,58.66l-.31,66.73-21.38.06-.53-74.97c-.1-14.04-8.72-26.12-21.22-33.26Z"/>
    <path d="M587.93,1514.14l-.64,58.19c-6.74,2.55-12.94,2.36-19.73,1.9l.55-59.5c.1-10.64,5.39-19.92,14.46-25.22,10.18-5.95,22.62-6.82,33.54-2.16l.13,16.85c-6.63-2.43-12.16-3.79-18.32-1.79-4.35,1.41-9.94,6.09-10,11.73Z"/>
    <path d="M632.67,1573.36c-5.28.91-11.12,1.27-16.38-.6l-1.04-37.82c-.19-6.85-9.44-9.08-15.48-7.01l-.46-18.09,15.67.55c5.79.2,16.05,6.93,16.18,13.52l.82,40,.7,9.44Z"/>
  </g>
  <polygon points="1358.47 1419.26 1333.69 1394.09 1357.32 1368.27 1381.89 1394.14 1358.47 1419.26"/>
  <polygon points="1358.59 792.62 1333.88 767.24 1357.45 741.5 1381.95 767.38 1358.59 792.62"/>
  <g>
    <path d="M642.74,203.68c-29.15-13.15-62.19-10.96-89.24,4.27-25.43,14.32-41.49,39.71-41.58,68.93l-.22,68.22c-7.28.89-13.19.69-20.32.09l.59-75.05c2.06-32.35,21.12-60.8,48.65-77.62,31.98-19.54,70.82-22.49,105.87-9.14,38.07,14.49,66.77,52.75,65.3,95.25l-36.29.13v-19.12s12.76-.79,12.76-.79c-5.52-23.89-21.73-44.43-45.53-55.17Z"/>
    <path d="M625.6,235.41c-14.32-7.56-31.24-7.3-45.35-.72-15.81,7.38-25.92,21.96-25.94,39.52l-.08,71.05h-21.92s.12-73.69.12-73.69c.03-21.31,11.46-39.79,29.51-51.28,20.91-13.3,48.14-14.93,70.98-4.9,21.67,9.52,37.04,29.81,37.06,53.44l.06,76.46-21.77.2-.18-73.92c-.04-15.52-8.35-28.7-22.5-36.17Z"/>
    <path d="M588.32,271.97l-.9,59.06c-6.59,3.15-13.4,3.18-19.71,2.26l.44-55.01c.1-12.9,4.26-23.86,15.62-30.87,9.99-6.17,23.07-6.69,34.36-2.45l.27,17.63c-12.07-5.86-24.73-3.32-30.08,9.39Z"/>
    <path d="M618.89,332.67l-.51-33.09c-.06-3.99-2.01-8.25-4.24-9.99-3.66-2.85-8.22-3.15-13.33-2.42l.22-17.32c13.36-2.3,26.12,1.53,32.58,13.11l.28,49.92-14.99-.22Z"/>
  </g>
  <polygon points="745.28 1419.43 721.18 1394.17 744.53 1368.61 768.64 1394.18 745.28 1419.43"/>
  <polygon points="768.54 764.61 744.92 791.19 721.75 765.61 744.35 739.76 768.54 764.61"/>
  <polygon points="1360.2 384.43 1336.74 359.3 1360.03 333.57 1383.29 358.91 1360.2 384.43"/>
  <polygon points="1360.21 1003.26 1336.71 978.37 1359.54 952.83 1383.21 978.46 1360.21 1003.26"/>
  <polygon points="746.44 1003.19 723.11 978.29 745.85 953.07 769.29 978.32 746.44 1003.19"/>
  <polygon points="1381.82 1603.59 1358.55 1628.69 1335.08 1603.81 1357.86 1578.66 1381.82 1603.59"/>
  <polygon points="745.97 384.15 723.24 359.36 745.9 334.06 769.18 358.99 745.97 384.15"/>
  <polygon points="746.37 1627.92 722.72 1603.8 745.29 1578.06 768.96 1603.73 746.37 1627.92"/>
  <g>
    <path d="M270.08,1001.53c-40.64,1.54-76.23,31.73-76.33,69.48l-.2,71.28-20.16.19-.07-66.32c-.07-59.75,55.01-101.26,116.24-92.16,47.28,7.03,83.54,47.61,81.89,95.84l-32.61.09.18-18.3,11.14-.5c-8.27-36.38-41.65-61.06-80.06-59.6Z"/>
    <path d="M271.46,1034.87c-21.2.77-37.78,14.63-40.31,34.92l-.08,72.51-20.54.14.24-71.57c.06-16.98,8.22-31.21,20.99-41.87,11.66-9.73,26.29-13.93,41.75-14.06,32.86-.29,60.49,24.44,60.51,58.63l.04,68.73-20.35.21-.12-74.2c-3.19-20.55-20.66-34.21-42.11-33.44Z"/>
    <path d="M261.25,1074.37l-.75,55.08c-6.11,2.99-12.1,2.79-18.05,2.06l1.23-61.38c.19-9.48,8.37-17.1,14.89-20.47,9.34-4.82,19.66-4.71,28.23-.76l-.51,16.07c-6.11-2.67-10.63-3.61-16.45-1.44-2.79,1.13-8.51,4.81-8.59,10.86Z"/>
    <path d="M301.77,1130.9l-15.94-.11-.52-35.76c-.1-6.6-7.72-9.73-13.75-8.55l-.3-15.83c14.26-3.23,28.29,4.92,29.09,14.67,1.27,15.64-.67,30.17,1.42,45.57Z"/>
  </g>
  <g>
    <path d="M1539.55,391.91c-32.59-16.63-72.8-9.87-97.85,15.78-12.98,13.29-19.24,30.09-19.24,48.31v67.2s-20.29-.18-20.29-.18l.28-69.14c.13-32.13,18.56-60.06,46.55-76.3,31.08-18.03,70.11-18.62,101.82-1.51,31.45,16.97,50.39,49.51,49.45,84.94l-32.79.16v-18.12s11.26-.44,11.26-.44c-5.08-21.89-18.29-40.05-39.19-50.71Z"/>
    <path d="M1541.74,449.86c-.24-21.66-22.31-34.99-42.52-33.56-18.57,1.31-36.66,14.29-38.21,33.44l-.88,73.28-20.46.05.39-72.41c.14-25.38,19.39-45.2,43.09-52,28.38-8.15,58.15,2.82,72.93,28.44,5.07,8.79,6.78,18.67,6.77,28.91l-.11,67.22-20.19-.23-.79-73.13Z"/>
    <path d="M1490.35,456.78l-.08,52.87c-5.7,3.79-11.74,3.61-18.63,2.9l1.54-61.33c2.25-19.64,25.76-29.3,42.21-21.18l.27,16.27c-5.94-3.13-11.12-4.36-16.75-1.97-3.69,1.57-8.56,6.43-8.56,12.45Z"/>
    <path d="M1530.61,511.54c-5.07.67-9.91.8-15.49.12l-.31-34.29c-.06-7.14-7.2-11.14-14.24-9.28l-.36-16.76,15.95.53c4.43.15,12.57,7.43,12.69,12.58l.87,38.35.88,8.75Z"/>
  </g>
  <path d="M301.53,1753.92c-5.24.64-10.46.52-15.73-.31l-.29-34.52c-.06-6.78-6.66-11.44-13.94-9.44l-.23-16.18c14.12-1.48,22.41.4,29.33,13.48l.13,37.25.74,9.73Z"/>
  <g>
    <path d="M1553.34,1642.65c-34.77-27.81-85.3-23.43-114.3,9.55-10.9,12.4-16.47,27.81-16.5,44.11l-.1,68.83-20.24-.27.27-69.94c.1-25.66,12.35-48.39,31.53-65.07,18.92-16.46,42.54-24.29,67.78-24.54,54.38-.54,100.28,42.73,98.42,97.51h-32.72s.01-18.4.01-18.4l11.26-.39c-3.7-16.2-11.67-30.4-25.41-41.39Z"/>
    <path d="M1541.73,1691.54c-.25-22.9-24.09-36.39-45.1-33.83-19.81,2.42-36,17.19-36.08,37.28l-.29,69.89-20.45.24-.19-66.13c-.06-20.14,8.15-39.13,25.13-50.41,17.93-11.91,40.47-14.22,60.6-6.48,20.82,8,37,26.62,37.12,49.2l.41,73.88-20.32-.02-.82-73.63Z"/>
    <path d="M1490.93,1695.43l-.99,56.82c-5.92,2.78-11.94,2.76-18.14,2.05l1.15-61.58c.19-10.02,7.71-15.59,15.82-20.91,8.52-4.05,18.1-4.07,26.42-.15,1.19,5.5.83,9.94-.17,15.89-4.16-1.8-10.54-3.19-14.49-2.03-3.46,1.01-9.5,4.15-9.6,9.91Z"/>
    <path d="M1530.14,1753.79l-15.07-.07-.42-35.84c-.08-6.48-7.84-9.62-14.11-8.3l.03-15.89c15.37-4.46,28.2,6.98,28.32,12.41l.75,35.67.5,12.02Z"/>
  </g>
  <g>
    <path d="M947.63,409.06c-30.75-33.29-83.14-34.86-116.41-4.82-13.73,12.39-22.71,29.14-22.78,47.73l-.27,70.99-19.87.26.35-72.56c.13-25.68,14.02-48.38,34.02-64.46,35.78-28.78,87.77-29.99,124.87-3,25.27,18.39,39.96,47.04,38.68,77.96l-32.68.2-.08-18.31,11.06-.41c-2.59-12.64-7.62-23.54-16.89-33.58Z"/>
    <path d="M914.88,425.91c-17.56-14.68-43-12.57-58.76,3.27-6.71,6.74-10.36,15.81-10.35,25.49l.03,68.29-20.69.1.08-64.39c.02-19.27,6.66-37.1,22.15-49.14,23.98-18.65,58.34-17.92,81.51,1.79,11.45,9.74,19.24,22.82,19.32,38.12l.38,73.59-20.35.06-.19-70.94c-.03-10.19-4.89-19.34-13.13-26.23Z"/>
    <path d="M875.88,455.01l-.93,55.39c-5.69,3.41-11.81,3.07-17.91,2.16l1.02-60.22c.17-9.89,8.39-17.79,15.28-21.62,9.13-5.06,19.51-4.8,28.11-.24l-.32,15.36c-6.18-2.56-10.51-3.48-16.69-1.32-1.9,1.33-8.47,4.9-8.56,10.48Z"/>
    <path d="M916.09,512.13l-15.45-.48-.2-32.94c-.02-3.6-1.29-6.46-3.18-8.36-2.61-2.63-6.07-3.14-10.56-2.54l-.4-16.57,14.33.62c5.24.23,14.04,7.35,14.21,13.43l1.25,46.84Z"/>
  </g>
  <g>
    <path d="M1138.68,1389.19c-37.02-15.94-59.15-50.98-57.42-91.55l21.74.08c-3.04,28.44,9.41,54.41,33.65,68.97,29.69,17.83,67.79,17.37,96.87-1.05,20.78-13.16,32.07-33.94,32.04-58.22l-.1-65.7,21.18.02-.23,68.4c-.08,24.5-11.42,46.31-29.6,62.45-30.94,27.49-80.12,32.96-118.14,16.6Z"/>
    <path d="M1225.78,1242.03l21.75-.48-.19,71.2c-.05,18-10.76,33.77-26.02,43.08-19.42,11.85-43.57,14.21-64.77,5.45-19.48-8.05-35.36-25.64-36.95-47.05l-.79-72.56,21.24.05.17,68.28c.03,12.76,7.81,23.88,18.66,30.3,16.39,9.69,37.41,9.03,52.39-2.36,8.9-6.77,14.1-15.82,14.59-26.82l-.07-69.08Z"/>
    <path d="M1169.86,1332.74c-2.22-5.62-1.36-10.59-.75-16.4,10.12,4.36,21.4,2.7,25.6-7.56l.24-52.94c5.89-2.49,11.27-2.85,18.43-2.74l-.88,58.23c-2.07,19.75-25.1,29.12-42.63,21.41Z"/>
    <path d="M1182.81,1296.01l.17,15.25c-12.62,2.14-23.58-3.43-29.76-13.58l-.23-43.71c5.28-.72,10.41-1,15.41.62l.76,32.7c.13,5.53,7.44,8.62,13.65,8.72Z"/>
  </g>
  <g>
    <path d="M945.9,1648.5c-26.48-27.07-67.35-31.35-100.07-13.35-22.48,12.37-37.44,35.23-37.52,61.1l-.2,68.45-19.78.46.28-71.41c.11-29.17,16.56-54.8,40.85-71.15,33.29-22.41,77.59-22.99,111.91-2.18,29.03,17.6,45.95,48.81,44.76,82.28l-32.56.19-.02-18.46,11.16-.36c-3-13.24-8.55-25.09-18.8-35.57Z"/>
    <path d="M928.56,1702.3c1.71-25.6-16.17-45.07-41.85-44.77-19.97.23-39.17,14.09-40.52,35.12l-.43,72.18-20.51.36.33-71.58c.08-17.01,8.93-32.67,22.44-42.98,19.86-15.15,46.93-17.04,69.11-5.96,20.46,10.23,31.55,30.35,31.46,53l-.28,67.47-20.17-.39.42-62.48Z"/>
    <path d="M875.62,1697.96l-.3,53.64c-5.11,3.26-11.1,3.22-18.22,2.87l.97-60.63c.16-9.78,8.47-17.85,15.27-21.41,9.23-4.84,19.66-4.8,28.13-.45.24,5.94.62,10.58-.41,15.71-6.44-2.52-11.38-3.93-17.5-1.06-2.67,1.63-7.92,5.86-7.95,11.33Z"/>
    <path d="M916.21,1753.74l-15.62-.07-.48-35.91c-.08-6.09-7.12-9.86-13.41-8.13l-.08-16.39c14.83-2.54,28.29,5.31,28.51,14.91l1.08,45.58Z"/>
  </g>
  <g>
    <path d="M1143.11,768.52c-39.08-14.67-62.32-52.07-60.73-92.35l21.03.37c-2.87,31.96,14.23,60.3,43.5,73.12,29.58,12.96,64.87,9.65,91.08-9.1,17.84-12.77,27.55-31.68,27.52-53.29l-.09-66.78,21.22-.02-.28,69.47c-.16,38.93-31.62,71.73-69.02,81.68-24.57,6.54-49.78,6.08-74.23-3.1Z"/>
    <path d="M1225.79,620.73l21.87-.29-.18,69.54c-.04,15.71-7.69,30.06-20.18,39.65-21.07,16.18-49.82,19.57-73.84,7.97-18.34-8.86-32.6-25.53-33.99-46.34l-.66-70.74h21.12s.35,69.12.35,69.12c.05,10.55,6.82,19.7,15.1,25.98,17.18,13.05,41.44,12.4,57.9-1.26,7.99-6.64,12.38-15.5,12.57-25.81l-.06-67.82Z"/>
    <path d="M1169.08,694.73c5.6,1.44,10.85,2.69,16.42.96,4.89-1.51,9.12-5.71,9.15-11.2l.28-50.02c6.34-2.64,11.96-2.9,18.56-2.54l-1.06,57.98c-2.51,19.37-26.04,28.41-42.58,20.92-1.9-5.18-1.62-8.66-.79-16.1Z"/>
    <path d="M1182.99,674.6l.06,14.39c-12.05,2.58-23.12-2.67-29.98-12.59l-.02-43.84c5.31-.52,10.16-.85,15.36.52l.62,34.96c3.73,3.82,7.56,6.18,13.97,6.56Z"/>
  </g>
  <g>
    <path d="M1526.48,1005.3c-51.01-15.65-103.2,20.23-103.53,62.77l-.57,74.29-20.17-.09.25-70.36c.09-25.35,11.92-47.66,30.87-64.29,20.05-17.6,45.55-25.68,72.53-24.84,52.77,1.65,95.89,43.89,94.43,96.98l-32.93.18-.05-18.4,11.57-.41c-5.91-26.57-25.3-47.52-52.39-55.84Z"/>
    <path d="M1541.64,1067.4c-1.89-22.01-23.77-34.06-43.63-32.35-19.84,1.7-37.25,15.42-37.37,35.83l-.42,71.12-20.54.38.13-70.2c.03-17.78,8.14-34.22,22.61-44.86,17.94-13.19,42.05-16.2,62.88-8.13,20.87,8.08,37.07,26.56,37.2,49.15l.43,74.05h-20.35s-.93-74.97-.93-74.97Z"/>
    <path d="M1490.66,1073.98l-.76,54.99c-5.91,3.03-10.96,3.02-18.07,2.58l1.39-61.54c2.08-19.74,25.57-28.93,42.22-21.12l.13,16.21c-5.11-2.58-11.62-3.42-16.02-1.94-3.52,1.19-8.81,4.97-8.89,10.83Z"/>
    <path d="M1530.18,1130.93l-15.04-.15-.67-36.76c-.11-6.25-8.18-8.9-13.86-7.71l-.26-16.09c5.9.33,10.52-1.05,16.14.97,4.34,1.56,12.36,6.93,12.48,12.07l.81,37.01.41,10.66Z"/>
  </g>
  <g>
    <path d="M915.86,1006.39c-27.83-10.01-58.86-4.88-81.14,13.27-17.05,13.89-26.51,33.35-26.51,55.12l.02,67.68h-19.97s.31-70.29.31-70.29c.14-31.04,17.14-57.74,43.1-74.06,42.56-26.75,103.06-18.53,134.99,22.38,13.22,16.94,20.18,36.59,19.46,59.11l-33.16.25.36-18.3,11.3-.48c-5.65-25.14-23.38-45.56-48.76-54.69Z"/>
    <path d="M928.65,1079.5c.19-25.71-16.42-44.82-41.9-44.66-20.59.13-40.63,14.5-40.74,36.15l-.39,71.34h-20.43s-.04-64.81-.04-64.81c-.01-24.22,11.2-46.15,33.46-56.44,20.55-9.49,44.47-8.38,63.5,3.79,16.01,10.23,26.28,26.76,26.31,45.93l.13,71.5-20.36.1.46-62.91Z"/>
    <path d="M875.74,1074.12l-.62,55.12c-5.78,2.95-11.29,3.23-18.04,2.75l.97-61.02c.15-9.65,8.46-18.04,15.19-21.44,9.4-4.76,19.81-4.85,28.26-.38.29,5.95.65,10.64-.36,15.7-6.11-2.31-10.51-3.29-16.59-1.43-2.46,1.52-8.74,5.2-8.81,10.7Z"/>
    <path d="M915.95,1131.03l-15.39-.25-.25-34.55c-.05-6.76-6.49-11.21-13.49-9.41l-.22-16.43c14.65-2.77,28.18,6.16,28.34,13.73l1.01,46.91Z"/>
  </g>
  <g>
    <path d="M475.66,1297.46l21.57.13c-3.7,33.95,15.24,64.56,46.63,76.41,25.03,9.45,52.7,7.2,75.71-6.44,21.57-12.78,34.16-35.11,34.16-60.13v-65.89s20.42,0,20.42,0l-.61,71.86c-.2,23.68-12.1,44.37-29.54,59.79-20.88,18.46-47.27,25.98-75.11,24.97-53.76-1.95-95.72-46.04-93.21-100.71Z"/>
    <path d="M615.74,1242.03c6.72-1.18,13.11-.6,20.44-.27l.2,64.34c.06,18.86-7.07,36.53-22.5,47.75-21.47,15.61-50.57,17.36-73.19,3.18-15.59-9.78-27.12-25.82-27.22-44.38l-.39-71.15,20.35.14.29,68.41c.06,14.49,8.85,26.25,21.52,32.49,13.29,6.55,29.15,6.08,41.89-1.39,12.25-7.17,19.38-19.5,18.63-33.75v-65.38Z"/>
    <path d="M561.7,1332.66c-1.34-5.67-1.04-10.55-.61-16.34,10.03,4.29,20.82,2.61,25.12-7.75l.22-52.84c5.8-2.13,10.92-2.69,17.62-2.71l-.05,55.77c0,9.84-7.03,18.17-13.81,22.35-8.87,5.47-18.78,5.77-28.48,1.52Z"/>
    <path d="M574.22,1296.26c1.68,4.99.51,9.61.79,14.98-11.43,2.12-22.41-3.3-28.64-13.56l-.06-43.71c4.7-.87,9.58-.99,14.48.49l1.35,34.07c.18,4.47,6.85,7.24,12.08,7.73Z"/>
  </g>
  <path d="M454.91,370.48c-6.31,8.84-13.57,15.59-21.42,23.94l-21.64-23.71c7.53-7.61,13.67-14.52,21.11-23l21.95,22.77Z"/>
  <polygon points="1048.49 1636.1 1026.34 1613.18 1047.71 1589.57 1069.58 1613.18 1048.49 1636.1"/>
  <polygon points="1683.19 1612.8 1661.95 1636.78 1640.49 1613.24 1661.83 1589.65 1683.19 1612.8"/>
  <polygon points="455 990.01 433.16 1013.5 412.19 990.31 432.99 966.81 455 990.01"/>
  <polygon points="455 1612.84 433.25 1636.71 412.11 1613.31 433.11 1589.82 455 1612.84"/>
  <polygon points="1069.53 370.57 1048.21 394.44 1026.5 371.31 1048.31 347.78 1069.53 370.57"/>
  <polygon points="1662.23 394.05 1640.51 370.75 1661.58 347.43 1683.25 370.89 1662.23 394.05"/>
  <polygon points="1069.68 990.05 1047.73 1013.46 1026.42 990.27 1047.73 966.62 1069.68 990.05"/>
  <g>
    <path d="M580.96,775.85c-60.33,2.13-103.54-39.69-103.57-99.89l21.24.38c-2.44,33.51,15.77,63.76,47.17,75.5,28.23,10.56,60.36,5.86,83.49-13.28,15.41-12.74,24.22-30.14,24.26-49.99l.15-68.41,20.31.1-.26,68.3c-.05,12.82-3.39,25.57-9.35,36.84-16.49,31.21-48.37,49.2-83.44,50.44Z"/>
    <path d="M514.8,629.33c6.77-1.04,13.26-.92,20.15-.43l.17,58.37c.03,11.13,5.13,21.27,13.6,28.15,18.3,14.85,44.79,12.24,59.83-5.84,4.86-5.84,7.51-13.22,7.51-20.99v-68.21s20.23.16,20.23.16l-.17,70.69c-.08,34.6-40.13,61.97-79.06,50.59-23.88-6.98-40.05-27.42-42.41-51.98l.15-60.5Z"/>
    <path d="M561.74,694.14c10.26,4.38,20.63,2.83,25.11-7.03l.49-52.96c5.84-1.86,10.48-2.53,17.19-2.11l-.65,58.32c-.1,8.99-8.45,16.3-14.59,19.54-8.98,4.74-18.64,4.88-27.04-.1-1.07-5.31-.65-10.07-.5-15.66Z"/>
    <path d="M576.1,674.58l.1,14.48c-11.65,2.12-22.28-2.83-28.54-12.94l-.2-43.52,14.67.34.59,33.52c2.78,4.65,6.83,7.5,13.38,8.12Z"/>
  </g>
  <polygon points="1683.25 989.95 1661.87 1013.32 1640.76 989.59 1661.81 966.75 1683.25 989.95"/>
  <path d="M1794.02,1296.32c1.65,5.55.89,9.9.46,15-12.2,1.77-21.73-3.45-27.5-13.48l-.73-43.88c5.14-.96,9.82-.97,14.71.53l1.21,34.7c.15,4.23,7.46,6.36,11.84,7.14Z"/>
  <path d="M1793.94,674.8c1.88,5.14,1.15,9.09.56,14.19-11.93,2.07-21.69-2.82-27.63-12.62l-.59-43.83c5.11-.88,9.7-.96,14.46.53l1.17,33.68c.16,4.54,7.21,7.26,12.02,8.05Z"/>
  <polygon points="1645.93 1399.14 1627.03 1378.7 1645.82 1357.87 1665.23 1378.35 1645.93 1399.14"/>
  <polygon points="1664.94 750.08 1646.07 770.8 1626.99 750.16 1645.35 730.36 1664.94 750.08"/>
  <polygon points="1032.09 1398.84 1012.94 1379.2 1031.63 1357.88 1051.11 1378.59 1032.09 1398.84"/>
  <polygon points="436.96 1378.11 417.79 1399.05 398.43 1378.36 416.87 1358.25 436.96 1378.11"/>
  <polygon points="436.76 750 417.7 770.97 398.79 750.25 417.48 730.28 436.76 750"/>
  <polygon points="1031.96 770.55 1012.84 750.45 1031.64 730.23 1050.76 750.22 1031.96 770.55"/>
  <circle cx="417.46" cy="560.74" r="14.69"/>
  <circle cx="1031.56" cy="1804" r="14.67"/>
  <circle cx="1645.35" cy="1804.02" r="14.69"/>
  <circle cx="1645.27" cy="560.67" r="14.64"/>
  <circle cx="417.32" cy="1178.24" r="14.62"/>
  <circle cx="1645.19" cy="1178.84" r="14.64"/>
  <circle cx="417.35" cy="1804.03" r="14.63"/>
  <circle cx="1031.54" cy="560.63" r="14.58"/>
  <circle cx="1356.79" cy="1185.24" r="14.57"/>
  <circle cx="460.74" cy="807.56" r="14.39"/>
  <circle cx="1031.6" cy="1178.33" r="14.54"/>
  <circle cx="743.2" cy="1185.18" r="14.55"/>
  <circle cx="460.84" cy="187.81" r="14.46"/>
  <circle cx="1689.34" cy="807.45" r="14.39"/>
  <circle cx="1075.04" cy="187.71" r="14.43"/>
  <circle cx="743.12" cy="1806.45" r="14.51"/>
  <circle cx="1356.71" cy="1806.49" r="14.51"/>
  <circle cx="1356.84" cy="563.02" r="14.45"/>
  <circle cx="460.62" cy="1433.86" r="14.36"/>
  <circle cx="743.07" cy="562.81" r="14.44"/>
  <circle cx="1689.29" cy="1433.8" r="14.33"/>
  <circle cx="1689.33" cy="187.87" r="14.39"/>
  <circle cx="1074.94" cy="1433.89" r="14.35"/>
  <circle cx="1074.94" cy="807.53" r="14.28"/>
  <g>
    <path d="M1501.56,695.69c31.21,12.28,69.12-5.37,80.76-36.29,8.73-23.19,2.55-49.02-13.75-67.04.56-1.6,1.24-3.49.57-4.1-.7-.64-3.76-.6-4.72-1-16.2-8.39-32.68-12.06-50.46-11.61l-67.54.02c.12-4.06-.99-8.15.43-11.95,1.27-3.4,7.01-4.76,10.77-4.76l64.18.02c30.15,0,60.3,12.65,73.57,39.91,9.29,19.08,11.27,41.24,5.27,61.74-12.95,44.29-62.21,66.36-106.72,51.2l7.63-16.12Z"/>
    <path d="M1467.93,733.62c-10.39-4.17-18-12.49-25.42-20.98l.05-69.89,74.1.5c-17.68,29.74-33.75,58.4-48.72,90.37Z"/>
    <path d="M1495.72,736.56l29.79-1.79c6.96-.42,14.95-.64,20.91-4.25l10.02-6.07c35.13-12.51,59.56-44.11,62.53-81.33,1.53-19.16-3.93-36.28-15.57-52.68l21.23-.69c11.53,19.97,15.22,42.13,11.45,64.96-11.81,71.59-89.27,110.98-157.02,85.41,4.76-4.88,10.82-3.2,16.67-3.56Z"/>
    <path d="M1419.66,664.2c3.88,2.06,7.19,1.47,10.89,1.88.59,4.52.75,8.2-.26,12.68l-22.13.27c-2.92.04-5.07-3.63-5.04-6.57l.53-54.76,19.33-.06,108.26.14-9.11,15.46-97.8.11c-2.4,0-4.6,2.15-4.61,4.4l-.07,26.46Z"/>
    <path d="M1561.31,606.18c-10.97,3.43-20.16.37-30.63.3l-113.4-.68c-4.03-2.35-2.24-15.56,3.47-15.57l110.13-.24c12.06-.03,22.88,6.91,30.44,16.19Z"/>
    <path d="M1508.61,683.53l7.7-15.52c14.96,2.89,28.52-3.26,35.59-15.45,7.37-12.72,5.01-26.29-5.06-38.68,8.83.08,13.58,2,20.06,0,10.12,17.74,7.5,38.66-5.6,54.27-12.52,14.92-32.95,20.38-52.69,15.39Z"/>
    <path d="M1501.53,728.15l-15.79.55c-.25-1.84.5-4.04,1.81-5.22l13.98,4.67Z"/>
  </g>
  <g>
    <path d="M251.61,740.74c-1.75-.63.16-4.28,1.98-4.27,13.19.1,25.88-1.67,38.67-5.31,17.44-1.05,34.03-4.79,49.18-13.34,46.14-26.03,65.48-84.3,32.79-127.84l22.3-.28c26.31,48.98,8.43,108.09-37.04,138.16-31.82,21.04-71.47,25.94-107.88,12.88Z"/>
    <path d="M238.83,734.09c-9.84-5.26-17.61-12.55-25.04-20.92l-.18-70.22,74.12.24c-17.4,30.14-33.56,58.9-48.9,90.9Z"/>
    <path d="M280.06,683.68c1.47-5.91,4.56-10.06,7.33-15.46,19.64,3.02,39-9.27,39.82-30.73.51-13.45-10.94-30.46-25.38-30.58l-114.27-.95c-1.45-8.7-.19-16.33,5.81-16.32l106.83.23c16.27.03,29.56,10.54,37.24,24.03,9.27,16.28,8.53,35.35-2.66,50.63-12.22,16.67-33.57,24.26-54.71,19.15Z"/>
    <path d="M265.26,712.01c1.9-6.53,4.7-11.05,7.9-16.27,26.4,11.3,61.4-3.11,75.31-26.99,14.41-24.74,10.05-54.58-9.13-76.03l22.9-.51c17.16,27.82,17.44,64.87-2.47,91.8-21.44,28.99-59.9,39.2-94.51,28.01Z"/>
    <path d="M190.84,664.85l10.65,1.07c1.26,4.01.94,8.25.32,12.67l-20.67.65c-3.14.1-6.8-1.71-6.78-5.39l.33-55.61c5.41-2.47,10.46-.66,15.98-.64l111.28.36-8.98,15.37h-96.98c-3.42-.01-5.41,2.63-5.38,5.76l.23,25.76Z"/>
    <path d="M351.52,580.6l-32.27-1.16c-8.67-.31-16.75-3.67-25.76-3.68l-76.09-.06c0-3.8-1-8.37.53-12.53,1.16-3.17,6.63-4.33,10.08-4.31l73.48.55c19.41.15,36.72,8.42,50.87,20.07l.83.69c1.21.81-.14,2.09-.93.94-.15-.19-.43-.42-.73-.51Z"/>
  </g>
  <g>
    <path d="M310.91,392.29c-31.46-16.64-70.29-10.65-95.77,13.21-13.21,12.37-21.27,28.73-21.36,46.6l-.34,71.02-19.94.17-.06-65.99c-.03-27.53,11.71-52.12,33.06-69.96,34.16-28.54,85.07-31.57,122.34-7.02,27.65,18.21,43.47,48.26,42.5,80.73l-32.5.28.12-18.2c4.13.13,6.94.51,10.95-.66-4.82-21.63-18.54-39.36-38.99-50.17Z"/>
    <path d="M302.23,427.71c-16.93-15.87-42.87-15.38-59.68.09-7.48,6.88-11.32,16.65-11.35,26.91l-.22,68.26-20.47.16.1-68.51c.03-17.34,7.61-33.34,21.22-44.4,25.02-20.34,61.84-18.73,85.07,3.54,12.49,11.97,17.31,27.9,17.25,44.95l-.22,64.39-20.12.16-.24-71.23c-.03-9.43-4.12-17.52-11.35-24.3Z"/>
    <path d="M261.01,456.7l-.3,53.29c-5.76,3.42-12.02,3.33-18.2,2.61l1.02-60.05c.17-9.89,7.9-17.96,15-21.78,9.04-4.86,19.6-4.93,27.76-.46.4,5.97,1.02,10.57-.16,15.59-5.56-2.64-11.55-3.31-16.28-1.54-3.82,1.43-8.81,5.86-8.85,12.34Z"/>
    <path d="M301.59,511.77c-5.42.5-10.33.74-15.61-.38l-.66-35.18c-.12-6.19-7.25-9.59-13.67-8.13l-.35-16.92c5.07.33,9.79-.98,15.15.65,5.28,1.6,13.63,7.44,13.75,13.44l.69,36.22.7,10.3Z"/>
  </g>
</svg>